# xmcd
#
# Track frame offsets: 
#        150
#        11503
#        30657
#        47713
#        61383
#        73368
#        90699
#        108106
#        131174
#        148564
#        161185
#        173997
#        192897
#
# Disc length: 2898 seconds
#
# Revision: 1
# Processed by: cddbd v1.5.2PL0 Copyright (c) Steve Scherf et al.
# Submitted via: ExactAudioCopy v1.0b4
#
DISCID=b90b500d
DTITLE=Jonn Del Toro Richardson - Tengo Blues
DYEAR=2015
DGENRE=Blues
TTITLE0=Behind The Curtain
TTITLE1=I'm Her Man
TTITLE2=Love If You Want It
TTITLE3=Triple Lindig
TTITLE4=The Moment
TTITLE5=Can't Run From LOve
TTITLE6=Get Me Back To Texas
TTITLE7=This I Know
TTITLE8=Tall Pretty Baby
TTITLE9=Here She Comes
TTITLE10=Wild Ride
TTITLE11=Tell Me Do You Love Me
TTITLE12=Tengo Blues
EXTD=
EXTT0=
EXTT1=
EXTT2=
EXTT3=
EXTT4=
EXTT5=
EXTT6=
EXTT7=
EXTT8=
EXTT9=
EXTT10=
EXTT11=
EXTT12=
PLAYORDER=
